<svg width="250" height="250" viewBox="0 0 250 250" fill="none" xmlns="http://www.w3.org/2000/svg">
<path opacity="0.3" fill-rule="evenodd" clip-rule="evenodd" d="M44.6527 92.3137C25.1289 121.198 27.9868 159.707 54.1237 186.66C78.5897 211.891 117.9 212.694 151.403 202.4C188.4 191.033 226.768 170.337 224.283 134.38C221.63 96.0134 183.106 67.3233 141.39 57.554C102.917 48.5445 64.512 62.9327 44.6527 92.3137Z" fill="#A5D1BE"/>
<path opacity="0.3" fill-rule="evenodd" clip-rule="evenodd" d="M203.857 58.8992C211.267 51.5705 211.698 39.3066 204.105 28.6393C196.998 18.6538 184.169 15.0102 172.846 15.3306C160.342 15.6845 147.059 18.8313 146.596 30.2667C146.103 42.4685 157.686 54.747 170.984 61.3965C183.248 67.5289 196.32 66.3538 203.857 58.8992Z" fill="#A5D1BE"/>
<path d="M169.544 137.582L169.305 139.625L167.712 140.653L169.604 141.051L170.653 142.861L170.893 140.818L172.485 139.79L170.594 139.392L169.544 137.582Z" fill="#FEC091"/>
<path d="M128.257 160.022L128.017 162.065L126.425 163.093L128.317 163.491L129.366 165.301L129.606 163.258L131.198 162.23L129.306 161.832L128.257 160.022Z" fill="#FEC091"/>
<path d="M151.475 66.4829L149.752 68.505L147.322 68.6123L149.045 70.205L148.859 72.7769L150.582 70.7547L153.012 70.6475L151.289 69.0547L151.475 66.4829Z" fill="#FEC091"/>
<path d="M74.9144 51.0106L74.8558 52.7931L73.5534 53.7821L75.2187 54.0078L76.2582 55.5079L76.3168 53.7254L77.6192 52.7365L75.9539 52.5107L74.9144 51.0106Z" fill="#FEC091"/>
<path d="M49.8914 101.309L49.8328 103.092L48.5305 104.081L50.1958 104.307L51.2353 105.807L51.2939 104.024L52.5962 103.035L50.9309 102.81L49.8914 101.309Z" fill="#FEC091"/>
<path d="M160.905 45.9759L160.846 47.7585L159.544 48.7474L161.209 48.9731L162.249 50.4733L162.308 48.6907L163.61 47.7018L161.945 47.476L160.905 45.9759Z" fill="#FEC091"/>
<path d="M214.229 88.1762L214.312 89.6194L213.333 90.5001L214.694 90.5776L215.643 91.7237L215.56 90.2804L216.54 89.3997L215.178 89.3222L214.229 88.1762Z" fill="#FEC091"/>
<g opacity="0.5">
<ellipse cx="76.4523" cy="3.16666" rx="76.4523" ry="3.16666" transform="matrix(-1 0 0 1 207.821 224.836)" fill="#AFA6FF"/>
</g>
<path d="M28.1588 126.893C24.4774 115.727 30.7975 104.086 42.1599 101.104C49.7603 99.1092 58.004 101.491 63.5076 107.273L82.9272 127.672L38.2768 157.583L28.1588 126.893Z" fill="#7258D8"/>
<path d="M58.7745 128.94C63.3701 123.513 64.1224 115.812 60.6863 109.372C59.6911 107.507 62.147 105.844 63.6168 107.388L82.9271 127.672L37.2827 154.323L58.7745 128.94Z" fill="#4929CC"/>
<ellipse cx="25.7362" cy="16.4747" rx="25.7362" ry="16.4747" transform="matrix(0.967248 -0.253834 0.291649 0.956526 176.83 110.952)" fill="#1F26A6"/>
<path d="M211.799 118.794C214.453 127.497 210.768 138.725 198.314 141.994C185.859 145.262 183.995 135.49 181.341 126.787C178.688 118.084 174.344 107.496 186.798 104.228C199.253 100.959 209.146 110.091 211.799 118.794Z" fill="#1F26A6"/>
<path d="M70.9219 124.263C108.337 105.562 149.51 96.7208 172.221 94.3997C181.784 93.4224 191.654 96.3155 197.868 103.752C203.446 110.429 206.365 117.738 207.596 124.768C210.684 142.401 194.425 155.007 176.631 158.031C139.865 164.281 105.677 165.538 79.2915 164.108C49.0617 162.471 44.3607 137.538 70.9219 124.263Z" fill="#7258D8"/>
<path d="M76.9394 135.923L76.8043 138.498L74.8942 139.895L77.2944 140.262L78.7542 142.455L78.8894 139.881L80.7995 138.483L78.3992 138.117L76.9394 135.923Z" fill="#FEC091"/>
<path d="M116.157 151.179L116.25 152.951L117.564 153.913L115.912 154.166L114.908 155.675L114.815 153.903L113.5 152.941L115.152 152.689L116.157 151.179Z" fill="#FEC091"/>
<path d="M182.499 157.097C155.739 162.096 130.474 164.374 108.48 164.822C76.9584 165.464 78.6178 158.387 110.142 157.797C135.455 157.323 165.903 151.231 185.059 149.047C198.537 147.511 195.797 154.613 182.499 157.097Z" fill="#7258D8"/>
<path d="M184.653 153.208L180.428 139.351L169.59 157.748L184.653 153.208Z" fill="#7258D8"/>
<path d="M199.38 105.034C195.165 87.2277 196.32 80.0141 200.7 78.8646C205.973 77.4808 215.922 94.9705 222.922 117.929C229.923 140.887 231.323 160.621 226.05 162.004C221.67 163.154 214.867 153.92 208.404 136.704" stroke="#25223A" stroke-width="2.91914"/>
<path d="M219.159 118.037C225.016 137.244 227.008 153.537 223.609 154.429C221.565 154.965 218.39 150.969 214.824 143.236M202.401 84.8743C204.255 84.3879 207.328 88.5816 210.69 95.6103" stroke="#25223A" stroke-width="0.729785" stroke-linecap="round" stroke-dasharray="58.38 58.38"/>
<path d="M220.363 148.238C221.483 147.944 221.336 143.945 219.904 137.075M202.635 90.0944C201.619 90.361 201.888 94.4703 203.137 100.756" stroke="#25223A" stroke-width="0.729785" stroke-linecap="round" stroke-dasharray="58.38 58.38"/>
<path d="M132.871 149.673C134.854 144.239 139.396 140.143 145.099 138.646C161.222 134.415 175.045 151.776 166.771 165.864L156.274 183.735C153.242 188.898 148.101 192.513 142.094 193.705L127.974 196.507C122.297 197.633 117.385 192.117 119.327 186.796L132.871 149.673Z" fill="#9185FF"/>
<path d="M116.056 195.805C116.353 194.903 117.064 194.202 117.983 193.906L146.83 184.605C151.254 183.179 154.33 189.183 150.434 191.64C150.1 191.851 149.733 192.01 149.346 192.111L119.966 199.821C117.539 200.458 115.286 198.144 116.056 195.805Z" fill="#7258D8"/>
<path d="M37.7165 159.727C38.8638 155.452 42.2227 152.146 46.5807 151.002L61.7332 147.026C69.0744 145.099 74.8741 153.695 70.2344 159.52C62.248 169.546 51.0708 176.82 38.4341 180.137C35.5138 180.903 32.7555 178.213 33.5242 175.348L37.7165 159.727Z" fill="#9185FF"/>
<path d="M52.6795 135.316C56.6897 131.525 68.4607 125.248 77.9387 120.648" stroke="white" stroke-width="1.45957" stroke-linecap="round"/>
<path d="M163.355 100.99C164.956 106.242 156.027 113.183 143.411 116.494C130.795 119.805 119.27 118.231 117.668 112.979C116.067 107.727 125.907 103.775 138.523 100.464C151.139 97.153 161.754 95.7379 163.355 100.99Z" fill="#1F26A6"/>
<path d="M163.354 100.99C164.956 106.242 156.026 113.183 143.411 116.494C130.795 119.805 119.269 118.231 117.668 112.979C116.066 107.727 126.253 114.248 138.869 110.937C151.485 107.626 156.32 104.89 163.354 100.99Z" fill="#1F26A6"/>
<ellipse cx="2.42223" cy="2.27238" rx="2.42223" ry="2.27238" transform="matrix(0.967248 -0.253834 0.291649 0.956526 195.665 117.746)" fill="#1F26A6"/>
<ellipse cx="1.81667" cy="1.70428" rx="1.81667" ry="1.70428" transform="matrix(0.967248 -0.253834 0.291649 0.956526 192.849 108.509)" fill="#1F26A6"/>
<ellipse cx="1.21112" cy="1.13619" rx="1.21112" ry="1.13619" transform="matrix(0.967248 -0.253834 0.291649 0.956526 188.02 100.973)" fill="#1F26A6"/>
<ellipse cx="1.81667" cy="1.70428" rx="1.81667" ry="1.70428" transform="matrix(0.967248 -0.253834 0.291649 0.956526 198.979 128.614)" fill="#1F26A6"/>
<ellipse cx="1.21112" cy="1.13619" rx="1.21112" ry="1.13619" transform="matrix(0.967248 -0.253834 0.291649 0.956526 200.624 138.16)" fill="#1F26A6"/>
<ellipse cx="0.605558" cy="0.568094" rx="0.605558" ry="0.568094" transform="matrix(0.967248 -0.253834 0.291649 0.956526 182.429 97.1582)" fill="#1F26A6"/>
<ellipse cx="0.605558" cy="0.568094" rx="0.605558" ry="0.568094" transform="matrix(0.967248 -0.253834 0.291649 0.956526 200.269 145.295)" fill="#1F26A6"/>
<path opacity="0.6" d="M151.386 178.957L172.82 139.294" stroke="white" stroke-width="2.91914" stroke-linecap="round"/>
<path d="M34.1926 110.364C34.1821 109.305 35.592 108.935 36.1806 109.842C36.5529 110.415 37.3593 110.526 37.8429 110.069L37.9947 109.926C38.7275 109.233 39.9567 109.966 39.6965 110.938C39.5254 111.578 40.0399 112.22 40.7206 112.214C41.7691 112.205 42.1859 113.572 41.2878 114.074C40.7047 114.4 40.6287 115.197 41.1358 115.659C41.9068 116.361 41.2731 117.582 40.258 117.348L40.0476 117.3C39.3776 117.146 38.7533 117.632 38.76 118.301C38.7704 119.36 37.3606 119.73 36.7719 118.823C36.3996 118.25 35.5932 118.139 35.1097 118.596L34.9578 118.739C34.225 119.432 32.9958 118.7 33.256 117.727C33.4271 117.087 32.9126 116.445 32.232 116.451C31.1834 116.46 30.7666 115.093 31.6648 114.591C32.2478 114.265 32.3238 113.468 31.8167 113.006C31.0458 112.304 31.6794 111.083 32.6946 111.317L32.9049 111.365C33.5749 111.519 34.1992 111.033 34.1926 110.364Z" fill="#795BF1"/>
<path d="M34.8347 111.48C34.8272 110.72 35.8403 110.454 36.2633 111.106C36.5308 111.518 37.1103 111.597 37.4578 111.269L37.5669 111.166C38.0935 110.668 38.9768 111.194 38.7898 111.893C38.6668 112.353 39.0365 112.814 39.5256 112.81C40.2791 112.804 40.5786 113.786 39.9332 114.147C39.5142 114.381 39.4596 114.953 39.824 115.285C40.378 115.79 39.9227 116.667 39.1932 116.5L39.042 116.465C38.5606 116.354 38.112 116.703 38.1168 117.184C38.1243 117.945 37.1112 118.211 36.6882 117.559C36.4207 117.147 35.8412 117.068 35.4937 117.396L35.3846 117.499C34.8581 117.997 33.9748 117.47 34.1617 116.771C34.2847 116.312 33.915 115.85 33.4259 115.855C32.6724 115.861 32.3729 114.879 33.0183 114.518C33.4373 114.284 33.4919 113.711 33.1275 113.379C32.5735 112.875 33.0289 111.997 33.7583 112.165L33.9095 112.2C34.3909 112.311 34.8395 111.961 34.8347 111.48Z" fill="#4FD59C"/>
<path d="M69.5572 154.363C65.274 161.062 62.0546 170.006 39.0588 176.745" stroke="white" stroke-width="1.45957" stroke-linecap="round"/>
<mask id="mask0_191_4803" style="mask-type:alpha" maskUnits="userSpaceOnUse" x="117" y="97" width="47" height="22">
<path d="M163.355 100.99C164.956 106.242 156.027 113.183 143.411 116.494C130.795 119.805 119.27 118.231 117.668 112.979C116.067 107.727 125.907 103.775 138.523 100.464C151.139 97.153 161.754 95.7379 163.355 100.99Z" fill="#C86709"/>
</mask>
<g mask="url(#mask0_191_4803)">
<path d="M122.579 120.787C120.055 96.6359 120.539 90.9855 123.204 85.5996C124.402 83.1783 128.124 82.8334 130.754 82.026C133.014 81.3322 135.086 80.6123 137.025 82.0484C144.383 87.4999 151.818 101.156 156.96 115.286L122.579 120.787Z" fill="#52DDA2"/>
</g>
<path d="M121.855 94.5223C122.091 89.7651 122.304 87.8511 123.271 85.6366C124.352 83.1602 128.124 82.8343 130.754 82.0269C133.014 81.333 135.083 80.5842 137.146 81.8372C143.799 85.8772 149.063 94.1618 154.137 108.104L139.491 110.27C130.034 111.668 121.389 103.911 121.855 94.5223Z" fill="#52DDA2"/>
<path d="M157.515 101.183L157.158 101.591L158.211 105.044L162.668 104.42C164.28 104.194 165.765 103.483 166.92 102.385L167.697 101.646C168.25 101.121 168.454 100.331 168.227 99.5897C167.939 98.6426 167.023 97.9979 166.025 98.0397L163.988 98.1251C161.467 98.2307 159.132 99.3338 157.515 101.183Z" fill="#FCA378"/>
<path d="M163.984 102.395L162.214 100.209C161.555 99.3957 162.076 98.223 163.115 98.1775L166.272 98.0392C167.147 98.0009 167.968 98.5142 168.314 99.3153C168.651 100.098 168.462 100.987 167.84 101.544L166.608 102.646C165.851 103.324 164.643 103.208 163.984 102.395Z" fill="#4929CC"/>
<path d="M122.798 100.664C122.555 94.6211 123.138 88.6664 124.214 84.6097C124.667 82.9013 127.2 82.1847 129.017 82.2741C131.023 82.3728 132.016 83.8338 132.187 85.7963L132.675 91.3718C133.404 99.7165 141.942 105.418 150 102.941L155.705 101.187C156.368 100.983 157.09 101.367 157.293 102.032C158.182 104.949 156.762 107.99 153.964 109.16L146.736 112.184C135.779 116.768 123.274 112.483 122.798 100.664Z" fill="#3DAB7C"/>
<path fill-rule="evenodd" clip-rule="evenodd" d="M128.793 57.8362C133.519 57.6641 123.119 60.4847 127.696 61.6168C132.551 62.818 129.089 59.9976 131.983 63.8376C131.527 67.108 132.457 60.5695 131.983 63.8376C131.306 68.5032 133.188 74.6846 129.081 77.4048C125.05 80.0753 135.709 74.373 131.077 75.9909C121.743 79.2512 116.924 92.5569 107 91.541C98.8331 90.7049 95.5645 79.8426 94.4458 72.2407C93.4222 65.2852 105.115 82.1299 108.335 75.8021C110.738 71.081 113.623 66.6995 117.847 63.2731C121.682 60.1612 123.706 58.0215 128.793 57.8362Z" fill="#25223A"/>
<ellipse cx="10.4607" cy="9.81358" rx="10.4607" ry="9.81358" transform="matrix(0.967248 -0.253834 0.291649 0.956526 114.082 64.5498)" fill="#4929CC"/>
<ellipse cx="10.4607" cy="9.81358" rx="10.4607" ry="9.81358" transform="matrix(0.967248 -0.253834 0.291649 0.956526 114.082 64.5498)" fill="#FCA378"/>
<path d="M129.432 80.7976C117.841 82.3049 117.269 72.7154 119.818 68.4845C134.868 60.3309 136.574 61.2139 134.003 65.4807C133.073 66.6158 126.191 67.6988 125.446 69.1631C124.243 71.5279 124.022 75.5492 125.471 78.1365C126.417 79.8245 128.904 80.7044 129.432 80.7976Z" fill="#4929CC"/>
<rect width="8.59892" height="1.61339" transform="matrix(0.967248 -0.253834 0.291649 0.956526 122.265 70.7183)" fill="#795BF1"/>
<path d="M129.32 66.1827C133.288 65.4948 135.927 61.4961 133.075 58.5793C131.335 56.799 129.11 55.5156 126.657 54.8773C124.204 54.2389 121.623 54.2716 119.213 54.9715C116.802 55.6715 114.659 57.0101 113.032 58.8331C111.404 60.6561 110.358 62.8891 110.015 65.2745C109.671 67.6599 110.044 70.1006 111.089 72.3149C112.135 74.5293 113.812 76.4271 115.925 77.7894C115.998 77.8365 116.072 77.8828 116.146 77.9285C119.592 80.0592 123.106 76.8681 123.193 72.9401C123.268 69.5915 125.691 66.8118 129.041 66.231L129.32 66.1827Z" fill="#795BF1"/>
<path d="M115.998 68.3392C112.732 68.8374 110.486 71.9956 112.509 74.6446C113.112 75.433 113.808 76.1602 114.59 76.8099C115.461 77.534 116.418 78.1452 117.434 78.6337C120.363 80.0412 123.111 77.4917 123.175 74.3413C123.25 70.6718 119.856 67.7509 116.17 68.313L115.998 68.3392Z" fill="#8B70F5"/>
<path d="M137.462 67.9367C138.001 69.7066 136.834 71.5626 134.854 72.0822C132.874 72.6018 130.831 71.5882 130.292 69.8183C129.752 68.0484 131.463 67.9728 133.442 67.4532C135.422 66.9336 136.922 66.1667 137.462 67.9367Z" fill="#3200FA"/>
<path d="M137.461 67.9361C138.001 69.7061 136.833 71.5621 134.853 72.0817C132.873 72.6013 130.831 71.5877 130.291 69.8177C129.752 68.0478 132.46 71.2438 134.44 70.7242C136.42 70.2046 136.922 66.1662 137.461 67.9361Z" fill="#795BF1"/>
</svg>
